<svg width="33" height="31" viewBox="0 0 33 31" fill="none" xmlns="http://www.w3.org/2000/svg">
<g clip-path="url(#clip0_124_55)">
<path d="M9.94382 0.264893H23.3838C28.5038 0.264893 32.6638 4.16489 32.6638 8.96489V21.5649C32.6638 23.8723 31.6861 26.0852 29.9458 27.7167C28.2054 29.3483 25.845 30.2649 23.3838 30.2649H9.94382C4.82382 30.2649 0.663818 26.3649 0.663818 21.5649V8.96489C0.663818 6.65751 1.64153 4.44463 3.38187 2.81306C5.12221 1.1815 7.48261 0.264893 9.94382 0.264893ZM9.62382 3.26489C8.09617 3.26489 6.63109 3.83382 5.55088 4.84652C4.47067 5.85921 3.86382 7.23272 3.86382 8.66489V21.8649C3.86382 24.8499 6.43982 27.2649 9.62382 27.2649H23.7038C25.2315 27.2649 26.6965 26.696 27.7768 25.6833C28.857 24.6706 29.4638 23.2971 29.4638 21.8649V8.66489C29.4638 5.67989 26.8878 3.26489 23.7038 3.26489H9.62382ZM25.0638 5.51489C25.5943 5.51489 26.103 5.71244 26.478 6.06407C26.8531 6.4157 27.0638 6.89261 27.0638 7.38989C27.0638 7.88717 26.8531 8.36409 26.478 8.71572C26.103 9.06735 25.5943 9.26489 25.0638 9.26489C24.5334 9.26489 24.0247 9.06735 23.6496 8.71572C23.2745 8.36409 23.0638 7.88717 23.0638 7.38989C23.0638 6.89261 23.2745 6.4157 23.6496 6.06407C24.0247 5.71244 24.5334 5.51489 25.0638 5.51489ZM16.6638 7.76489C18.7856 7.76489 20.8204 8.55507 22.3207 9.96159C23.821 11.3681 24.6638 13.2758 24.6638 15.2649C24.6638 17.254 23.821 19.1617 22.3207 20.5682C20.8204 21.9747 18.7856 22.7649 16.6638 22.7649C14.5421 22.7649 12.5073 21.9747 11.007 20.5682C9.50667 19.1617 8.66382 17.254 8.66382 15.2649C8.66382 13.2758 9.50667 11.3681 11.007 9.96159C12.5073 8.55507 14.5421 7.76489 16.6638 7.76489ZM16.6638 10.7649C15.3908 10.7649 14.1699 11.239 13.2697 12.0829C12.3695 12.9268 11.8638 14.0714 11.8638 15.2649C11.8638 16.4584 12.3695 17.603 13.2697 18.4469C14.1699 19.2908 15.3908 19.7649 16.6638 19.7649C17.9369 19.7649 19.1578 19.2908 20.0579 18.4469C20.9581 17.603 21.4638 16.4584 21.4638 15.2649C21.4638 14.0714 20.9581 12.9268 20.0579 12.0829C19.1578 11.239 17.9369 10.7649 16.6638 10.7649Z" fill="white"/>
</g>
<defs>
<clipPath id="clip0_124_55">
<rect width="32" height="30" fill="white" transform="translate(0.663818 0.265137)"/>
</clipPath>
</defs>
</svg>
